<svg width="32" height="43" viewBox="0 0 32 43" fill="none" xmlns="http://www.w3.org/2000/svg">
<path d="M4 0H28C30.2 0 32 1.8 32 4V17C32 19.2 30.2 21 28 21H4C1.8 21 0 19.2 0 17V4C0 1.8 1.8 0 4 0ZM30 5.3L23 10.6L30 15.9V5.3ZM2 17C2 18.1 2.9 19 4 19H28C29.1 19 30 18.1 30 17L22.2 11.1L17.8 14.4C17.3 14.8 16.6 15 16 15C15.4 15 14.7 14.8 14.2 14.4L9.8 11.1L2 17ZM2 15.8L9 10.5L2 5.2V15.8ZM14.8 13.6C15.2 13.9 15.6 14 16 14C16.4 14 16.9 13.9 17.2 13.6L21.3 10.5L22.1 9.9L30 4C30 2.9 29.1 2 28 2H4C2.9 2 2 2.9 2 4L14.8 13.6Z" fill="black"/>
<path d="M4 22H28C30.2 22 32 23.8 32 26V39C32 41.2 30.2 43 28 43H4C1.8 43 0 41.2 0 39V26C0 23.8 1.8 22 4 22ZM30 27.3L23 32.6L30 37.9V27.3ZM2 39C2 40.1 2.9 41 4 41H28C29.1 41 30 40.1 30 39L22.2 33.1L17.8 36.4C17.3 36.8 16.6 37 16 37C15.4 37 14.7 36.8 14.2 36.4L9.8 33.1L2 39ZM2 37.8L9 32.5L2 27.2V37.8ZM14.8 35.6C15.2 35.9 15.6 36 16 36C16.4 36 16.9 35.9 17.2 35.6L21.3 32.5L22.1 31.9L30 26C30 24.9 29.1 24 28 24H4C2.9 24 2 24.9 2 26L14.8 35.6Z" fill="#63D1BB"/>
</svg>
