<svg width="25" height="50" viewBox="0 0 25 50" fill="none" xmlns="http://www.w3.org/2000/svg">
<path d="M17.4395 24C17.0363 24 16.7339 24 16.3306 24C11.3911 23.4074 7.7621 21.1358 5.14113 18.2717C2.52016 15.4075 0.403226 11.7532 0 6.7162C0 6.22237 0 5.82731 0 5.33349C0.100806 4.44461 0.504032 3.85202 1.10887 3.25943C1.71371 2.56808 2.72177 1.77796 3.62903 1.6792C4.33468 1.6792 5.44355 2.17302 5.84677 2.76561C6.25 3.25943 6.45161 4.34584 6.65323 5.13596C6.85484 6.02484 7.25806 7.11125 7.15726 7.90137C6.95565 9.08655 5.34274 9.58037 4.93952 10.4693C6.55242 14.1235 9.07258 16.889 12.5 18.6667C13.3065 18.1729 14.1129 16.7902 15.3226 16.7902C15.7258 16.7902 16.3306 16.9877 16.7339 17.0865C17.2379 17.1852 17.6411 17.3828 18.0444 17.5803C18.75 17.8766 20.0605 18.1729 20.4637 18.7655C20.8669 19.3581 21.1694 20.3457 21.0685 20.9383C20.7661 22.2222 18.6492 23.6049 17.4395 24Z" fill="black"/>
<path d="M12.6008 1.48147C18.5484 1.48147 23.4879 6.22217 23.4879 12.1481H25C25 5.43205 19.4556 0 12.6008 0V1.48147Z" fill="black"/>
<path d="M12.6008 9.18506V10.7653C13.4073 10.7653 14.0121 11.3579 14.0121 12.148H15.625C15.625 10.5678 14.3145 9.18506 12.6008 9.18506Z" fill="black"/>
<path d="M12.6008 6.12356C15.9274 6.12356 18.75 8.79021 18.75 12.1482H20.3629C20.3629 8.00009 16.9355 4.64209 12.7016 4.64209V6.12356H12.6008Z" fill="black"/>
<g clip-path="url(#clip0)">
<path d="M17.4395 50C17.0363 50 16.7339 50 16.3306 50C11.3911 49.4074 7.7621 47.1358 5.14113 44.2717C2.52016 41.4075 0.403226 37.7532 0 32.7162C0 32.2224 0 31.8273 0 31.3335C0.100806 30.4446 0.504032 29.852 1.10887 29.2594C1.71371 28.5681 2.72177 27.778 3.62903 27.6792C4.33468 27.6792 5.44355 28.173 5.84677 28.7656C6.25 29.2594 6.45161 30.3458 6.65323 31.136C6.85484 32.0248 7.25806 33.1112 7.15726 33.9014C6.95565 35.0865 5.34274 35.5804 4.93952 36.4693C6.55242 40.1235 9.07258 42.889 12.5 44.6667C13.3065 44.1729 14.1129 42.7902 15.3226 42.7902C15.7258 42.7902 16.3306 42.9877 16.7339 43.0865C17.2379 43.1852 17.6411 43.3828 18.0444 43.5803C18.75 43.8766 20.0605 44.1729 20.4637 44.7655C20.8669 45.3581 21.1694 46.3457 21.0685 46.9383C20.7661 48.2222 18.6492 49.6049 17.4395 50Z" fill="#63D1BB"/>
<path d="M12.6008 27.4815C18.5484 27.4815 23.4879 32.2222 23.4879 38.1481H25C25 31.432 19.4556 26 12.6008 26V27.4815Z" fill="#63D1BB"/>
<path d="M12.6008 35.1851V36.7653C13.4073 36.7653 14.0121 37.3579 14.0121 38.148H15.625C15.625 36.5678 14.3145 35.1851 12.6008 35.1851Z" fill="#63D1BB"/>
<path d="M12.6008 32.1236C15.9274 32.1236 18.75 34.7902 18.75 38.1482H20.3629C20.3629 34.0001 16.9355 30.6421 12.7016 30.6421V32.1236H12.6008Z" fill="#63D1BB"/>
</g>
<defs>
<clipPath id="clip0">
<rect width="25" height="24" fill="white" transform="translate(0 26)"/>
</clipPath>
</defs>
</svg>
