<svg width="1124" height="34" viewBox="0 0 1124 34" fill="none" xmlns="http://www.w3.org/2000/svg">
<path d="M1155.8 0C1140.15 0 1140.15 14 1124.61 14C1109.07 14 1108.96 0 1093.41 0C1077.87 0 1077.76 14 1062.22 14C1046.57 14 1046.57 0 1030.91 0C1015.26 0 1015.26 14 999.72 14C984.065 14 984.065 0 968.522 0C952.87 0 952.87 14 937.326 14C921.783 14 921.348 0 905.804 0C890.152 0 890.152 14 874.609 14C859.065 14 858.848 0 843.304 0C827.652 0 827.652 14 812.109 14C796.456 14 796.456 0 780.804 0C765.152 0 765.152 14 749.609 14C733.956 14 733.957 0 718.413 0C702.87 0 702.652 14 687 14C671.348 14 671.348 0 655.804 0C640.152 0 640.152 14 624.609 14C608.956 14 608.956 0 593.304 0C577.652 0 577.652 14 562.109 14C546.456 14 546.457 0 530.913 0C515.261 0 515.261 14 499.717 14C484.065 14 484.065 0 468.522 0C452.87 0 452.87 14 437.217 14C421.565 14 421.565 0 405.913 0C390.261 0 390.261 14 374.609 14C358.957 14 358.957 0 343.304 0C327.652 0 327.652 14 312 14C296.348 14 296.348 0 280.696 0C265.043 0 265.043 14 249.391 14C233.739 14 233.739 0 218.087 0C202.435 0 202.435 14 186.891 14C171.239 14 171.239 0 155.587 0C139.935 0 139.935 14 124.283 14C108.63 14 108.63 0 92.978 0C77.3261 0 77.3261 14 61.6739 14C46.0217 14 46.0217 0 30.3696 0C15.1522 0 15.1522 14 -0.499996 14C-16.1522 14 -16.1522 0 -31.6957 0C-47.2391 0 -47.3478 14 -63 14V34H1187V14C1171.35 14 1171.35 0 1155.8 0Z" fill="white"/>
</svg>
